<svg id="office" xmlns="http://www.w3.org/2000/svg" width="45.725" height="45.725" viewBox="0 0 45.725 45.725">
  <path id="Path_45195" data-name="Path 45195" d="M38.1,7.621h-3.81V0H11.431V7.621H7.621v7.621H0V45.725H45.725V15.242H38.1ZM15.242,3.81H30.483v3.81H15.242Zm19.052,7.621V30.483H11.431V11.431ZM26.673,34.294v7.621H19.052V34.294ZM3.81,41.915V19.052h3.81V41.915Zm7.621-7.621h3.81v7.621h-3.81Zm19.052,7.621V34.294h3.81v7.621ZM41.915,19.052V41.915H38.1V19.052Zm0,0" fill="#b97c1b"/>
  <path id="Path_45196" data-name="Path 45196" d="M144,192h11.431v3.81H144Zm0,0" transform="translate(-126.853 -169.137)" fill="#b97c1b"/>
  <path id="Path_45197" data-name="Path 45197" d="M144,128h11.431v3.81H144Zm0,0" transform="translate(-126.853 -112.758)" fill="#b97c1b"/>
</svg>
