<svg id="family" xmlns="http://www.w3.org/2000/svg" width="47" height="47" viewBox="0 0 47 47">
  <path id="Path_45201" data-name="Path 45201" d="M354.778,252.557a5.278,5.278,0,1,1,5.278-5.278A5.284,5.284,0,0,1,354.778,252.557Z" transform="translate(-317.417 -219.785)" fill="#5cac6f"/>
  <path id="Path_45202" data-name="Path 45202" d="M52.778,252.557a5.278,5.278,0,1,1,5.278-5.278A5.284,5.284,0,0,1,52.778,252.557Z" transform="translate(-43.14 -219.785)" fill="#5cac6f"/>
  <path id="Path_45203" data-name="Path 45203" d="M160.736,3.672a4.539,4.539,0,0,1-4.082-2.523L156.46.761A1.377,1.377,0,0,0,155.229,0h-7.344a1.377,1.377,0,0,0-1.232.761l-.194.388a4.539,4.539,0,0,1-4.082,2.523A1.377,1.377,0,0,0,141,5.049v7.858a14.258,14.258,0,0,0,10.161,13.657,1.376,1.376,0,0,0,.791,0,14.258,14.258,0,0,0,10.161-13.657V5.049a1.377,1.377,0,0,0-1.377-1.377Zm-4.311,8.016-5.193,5.193a1.377,1.377,0,0,1-1.947,0l-2.6-2.6a1.377,1.377,0,1,1,1.947-1.947l1.623,1.623,4.219-4.219a1.377,1.377,0,1,1,1.947,1.947Z" transform="translate(-128.057)" fill="#5cac6f"/>
  <g id="Group_23869" data-name="Group 23869" transform="translate(0 33.208)">
    <g id="Group_23868" data-name="Group 23868">
      <path id="Path_45204" data-name="Path 45204" d="M336.749,361.766a8.017,8.017,0,0,1-11.269-.007,9.65,9.65,0,0,0-2.032,1.976l.757.663a10.559,10.559,0,0,1,3.609,7.94v3.213H339.38a1.377,1.377,0,0,0,1.377-1.377v-4.59A9.632,9.632,0,0,0,336.749,361.766Z" transform="translate(-293.756 -361.759)" fill="#5cac6f"/>
      <path id="Path_45205" data-name="Path 45205" d="M4.008,361.766A9.632,9.632,0,0,0,0,369.584v4.59a1.377,1.377,0,0,0,1.377,1.377H12.943v-3.213a10.559,10.559,0,0,1,3.609-7.94l.757-.663a9.648,9.648,0,0,0-2.032-1.976,8.017,8.017,0,0,1-11.269.007Z" transform="translate(0 -361.759)" fill="#5cac6f"/>
    </g>
    <path id="Path_45206" data-name="Path 45206" d="M183.936,413.07a7.1,7.1,0,0,1-10.267,0A7.785,7.785,0,0,0,171,418.939v3.213h15.605v-3.213A7.785,7.785,0,0,0,183.936,413.07Z" transform="translate(-155.303 -408.36)" fill="#5cac6f"/>
  </g>
  <path id="Path_45207" data-name="Path 45207" d="M212.86,320.721a4.36,4.36,0,1,1,4.36-4.36A4.365,4.365,0,0,1,212.86,320.721Z" transform="translate(-189.36 -283.359)" fill="#5cac6f"/>
</svg>
