<svg xmlns="http://www.w3.org/2000/svg" width="37.59" height="46.987" viewBox="0 0 37.59 46.987">
  <g id="Icon" transform="translate(-8 -2)">
    <path id="Path_45200" data-name="Path 45200" d="M29.144,23.144V33.325h-4.7V23.144Zm-10.964,0V33.325h4.7V23.144ZM42.066,34.891H17.789a1.958,1.958,0,0,0,0,3.916H42.066a1.958,1.958,0,1,0,0-3.916ZM31.494,40.373H33.06v6.265a2.356,2.356,0,0,1-2.349,2.349H10.349A2.356,2.356,0,0,1,8,46.638V4.349A2.356,2.356,0,0,1,10.349,2H30.711A2.356,2.356,0,0,1,33.06,4.349v6.533l-1.566-.989V8.265H9.566V41.156H31.494Zm-7.831,4.7a.783.783,0,0,0-.783-.783h-4.7a.783.783,0,0,0,0,1.566h4.7A.783.783,0,0,0,23.662,45.072Zm7.048-21.927V33.325h4.7V23.144Zm6.265,0V33.325h4.7V23.144Zm8.584-2.132a.784.784,0,0,1-.753.566H15.048a.783.783,0,0,1-.418-1.445l14.043-8.869a2.362,2.362,0,0,1,2.509,0h0l14.043,8.869a.785.785,0,0,1,.334.88ZM31.1,15.812a5.668,5.668,0,0,0-1.08-.3c-.853-.035-.972-.965-.023-.934a.788.788,0,0,1,.824.569c.19.62,1.13.292.957-.318a1.646,1.646,0,0,0-1.534-1.12v-.352c.044-.314-.642-.345-.608-.011v.371c-1.943.328-1.962,2.768.288,2.993a1.987,1.987,0,0,1,.668.215c.457.386-.066.9-.6.835a.89.89,0,0,1-.98-.672.537.537,0,1,0-1.044.24,1.713,1.713,0,0,0,1.666,1.321v.466c-.028.347.646.344.608,0v-.466C31.863,18.637,32.579,16.529,31.1,15.812Z" fill="#eb4d5d"/>
  </g>
</svg>
