<svg xmlns="http://www.w3.org/2000/svg" width="59.022" height="47" viewBox="0 0 59.022 47">
  <g id="partnership" transform="translate(-4.004 -9.687)">
    <path id="Path_45208" data-name="Path 45208" d="M61.89,26.234,57.675,10.658a1.354,1.354,0,0,0-1.858-.849l-4.608,2.219a5.311,5.311,0,0,1-2.41.244c-2.634-.379-10.547-1.551-13.081-1.709a3.941,3.941,0,0,0-2.994.945l-5.489,4.757c-1.585,1.247-3.193,2.694-3.121,4.895v7.677c0,.829,1.291.883,1.837.775,3.261-.645,4.582-3.8,4.927-7.177.014-1.158,1.645-3.119,2.845-2.294L50.36,34.356l4.916-4.969c-.158-.182,5.552-1.46,5.659-1.518a1.326,1.326,0,0,0,.956-1.635Z" transform="translate(1.089)" fill="#ef695c"/>
    <path id="Path_45209" data-name="Path 45209" d="M17.026,32.933a1.953,1.953,0,0,0-2.739.159s-2.232,2.5-2.336,2.622a1.94,1.94,0,1,0,2.9,2.58l2.336-2.623a1.945,1.945,0,0,0-.159-2.739Z" transform="translate(0.404 1.232)" fill="#ef695c"/>
    <path id="Path_45210" data-name="Path 45210" d="M19.971,34.643c-1,1.12-4.572,5.144-4.576,5.15a1.963,1.963,0,1,0,3.206,2.23c.443-.495,3.924-4.41,4.268-4.788a1.944,1.944,0,1,0-2.9-2.591Z" transform="translate(0.591 1.316)" fill="#ef695c"/>
    <path id="Path_45211" data-name="Path 45211" d="M24.534,38.135a1.9,1.9,0,0,0-1.338.648L19.565,42.86a1.94,1.94,0,0,0,2.9,2.58c.122-.135,3.631-4.077,3.631-4.077a1.953,1.953,0,0,0-1.561-3.228Z" transform="translate(0.816 1.54)" fill="#ef695c"/>
    <path id="Path_45212" data-name="Path 45212" d="M27.762,44.081a1.839,1.839,0,0,0-2.548.117l-1.6,1.8a1.973,1.973,0,0,0,1.646,3.185,2.4,2.4,0,0,0,1.72-1.115l1.115-1.264a1.858,1.858,0,0,0-.329-2.729Z" transform="translate(1.039 1.838)" fill="#ef695c"/>
    <path id="Path_45213" data-name="Path 45213" d="M34.121,21.547a1.523,1.523,0,0,0-.573.987c-.355,4.031-2.3,7.882-6.286,8.558-2,.4-3.6-.839-3.652-2.3V21.07a6.377,6.377,0,0,1,2.007-4.64H20.381a.819.819,0,0,1-.446-.138L12.96,11.546a1.342,1.342,0,0,0-1.943.531L4.136,26.325a1.322,1.322,0,0,0,.7,1.8l6.434,2.58a.778.778,0,0,1,.435.425l1.179,2.729.616-.69a3.554,3.554,0,0,1,6.052,1.465,3.524,3.524,0,0,1,4.81-.117,3.571,3.571,0,0,1,1.094,3.461,3.561,3.561,0,0,1,2.686,5.84c2.619.38,4.066,3.791,2.177,5.8l-.626.7,6.838,5.755a2.587,2.587,0,0,0,3.96-3.026l-7.337-6.232a.8.8,0,1,1,.956-1.274l7.114,5.872c2.158,1.808,4.977-.834,3.96-3.026-.311-.266-8.847-7.555-8.855-7.57a.795.795,0,1,1,1.03-1.21l8.42,7.093a2.475,2.475,0,1,0,3.2-3.78l-8.239-6.954a.8.8,0,1,1,1.03-1.221c.8.7,7.07,5.907,8.037,6.721a2.475,2.475,0,1,0,3.079-3.876S34.128,21.58,34.121,21.547Z" transform="translate(0 0.089)" fill="#ef695c"/>
  </g>
</svg>
