<svg xmlns="http://www.w3.org/2000/svg" width="47.933" height="46.987" viewBox="0 0 47.933 46.987">
  <path id="verified_1_" data-name="verified (1)" d="M40.991,24.189A17.787,17.787,0,0,1,46.2,26.348l3.384-1.5,3.989,3.989-1.5,3.383a17.783,17.783,0,0,1,2.16,5.21l3.453,1.329V44.4l-1.168.45a3.62,3.62,0,0,0-2.536-1.036H49.239A12.6,12.6,0,1,0,36.349,54.162v.927a4.153,4.153,0,0,0,1.158,2.868v4.46H34.02l-1.329-3.454A17.787,17.787,0,0,1,27.483,56.8l-3.384,1.5L20.11,54.318l1.5-3.383a17.786,17.786,0,0,1-2.16-5.21L16,44.4V38.756l3.453-1.329a17.784,17.784,0,0,1,2.159-5.209l-1.5-3.384L24.1,24.845l3.384,1.5a17.787,17.787,0,0,1,5.208-2.159l1.329-3.454h5.641Zm3.164,25.29v3.169a1.225,1.225,0,0,0,1.222,1.222H56.5a1.225,1.225,0,0,0,1.222-1.222V49.479Zm4.39,10.4A2.395,2.395,0,1,0,50.94,57.48,2.395,2.395,0,0,0,48.545,59.875Zm14.23-2.6a2.781,2.781,0,0,0,1.158-2.183V50.453a.976.976,0,0,0-.974-.974H59.323v3.169A2.824,2.824,0,0,1,56.5,55.467H45.377a2.824,2.824,0,0,1-2.819-2.819V49.479H38.921a.976.976,0,0,0-.974.974v4.636A2.781,2.781,0,0,0,39.1,57.272c1.858,1.525,5.563,1.95,7.869,2.138a3.993,3.993,0,0,1,7.931,0C57.208,59.22,60.92,58.795,62.775,57.273ZM39.1,59.2v6.619a1.907,1.907,0,0,0,1.9,1.9H60.873a1.907,1.907,0,0,0,1.9-1.9V59.2c-1.708.957-4.687,1.565-8.012,1.825a3.994,3.994,0,0,1-7.647,0c-3.324-.26-6.3-.869-8.012-1.826ZM56.013,47.881v-.437a2.041,2.041,0,0,0-2.035-2.035H47.9a2.041,2.041,0,0,0-2.035,2.035v.437h1.8v-.437a.239.239,0,0,1,.234-.233h6.076a.239.239,0,0,1,.233.233v.437ZM29.527,40.037a2.229,2.229,0,0,0,0,3.143l3.456,3.456c.977.977,2.451,1.425,3.553.323l7.62-7.62a2.229,2.229,0,0,0,0-3.143h0a2.229,2.229,0,0,0-3.143,0l-6.092,6.092-2.252-2.252a2.229,2.229,0,0,0-3.143,0Z" transform="translate(-16 -20.735)" fill="#c5c027" fill-rule="evenodd"/>
</svg>
