<svg xmlns="http://www.w3.org/2000/svg" xmlns:xlink="http://www.w3.org/1999/xlink" width="55.958" height="55.958" viewBox="0 0 55.958 55.958">
  <defs>
    <clipPath id="clip-path">
      <path id="Path_45215" data-name="Path 45215" d="M0,0H55.958V55.958H0Z" fill="none"/>
    </clipPath>
  </defs>
  <g id="balance" clip-path="url(#clip-path)">
    <path id="Path_45214" data-name="Path 45214" d="M6.663,25.139v9.326a3.5,3.5,0,0,0,6.995,0V25.139a3.5,3.5,0,0,0-6.995,0Zm13.989,0v9.326a3.5,3.5,0,0,0,6.995,0V25.139a3.5,3.5,0,0,0-6.995,0ZM5.5,49.62H42.8a3.5,3.5,0,0,0,0-6.995H5.5a3.5,3.5,0,0,0,0,6.995ZM34.642,25.139v9.326a3.5,3.5,0,0,0,6.995,0V25.139a3.5,3.5,0,0,0-6.995,0ZM21.981,1.8,3.562,11.5a2.9,2.9,0,0,0,1.352,5.479H43.409A2.9,2.9,0,0,0,44.738,11.5L26.318,1.8A4.608,4.608,0,0,0,21.981,1.8Z" transform="translate(2.663 1.674)" fill="#e44f9b"/>
  </g>
</svg>
