<svg xmlns="http://www.w3.org/2000/svg" width="88.098" height="88.098" viewBox="0 0 88.098 88.098">
  <g id="Group_23503" data-name="Group 23503" transform="translate(-10444.219 -6745)">
    <rect id="Rectangle_4060" data-name="Rectangle 4060" width="88.098" height="88.098" transform="translate(10444.219 6745)" fill="#d8b060"/>
    <g id="Group_23468" data-name="Group 23468" transform="translate(10113.377 6659.479)">
      <path id="Path_44251" data-name="Path 44251" d="M387.854,146.764l-25.823-.018a12.893,12.893,0,0,0,4.428,9.631,3.594,3.594,0,0,1,1.254,2.71v.272a1.26,1.26,0,0,0,1.26,1.26h11.944a1.26,1.26,0,0,0,1.261-1.26v-.272a3.224,3.224,0,0,1,1.078-2.558A12.853,12.853,0,0,0,387.854,146.764Z" fill="#fff"/>
      <path id="Path_44252" data-name="Path 44252" d="M387.831,145.273a4.639,4.639,0,0,0-4.436-6.165c-.012,0-.024,0-.036,0,.011-.117.036-.23.036-.35a3.756,3.756,0,0,0-3.756-3.755,3.707,3.707,0,0,0-1.016.157,5.378,5.378,0,0,0-7.355,0,3.714,3.714,0,0,0-1.017-.157,3.755,3.755,0,0,0-3.755,3.755c0,.12.024.233.035.35-.012,0-.023,0-.035,0a4.638,4.638,0,0,0-4.442,6.147Z" fill="#fff"/>
    </g>
    <text id="_02" data-name="02" transform="translate(10488.268 6762.144)" fill="#fff" font-size="14" font-family="Roboto-Bold, Roboto" font-weight="700"><tspan x="-8.032" y="0">02</tspan></text>
    <text id="ZERO_HUNGER" data-name="ZERO HUNGER" transform="translate(10488.268 6775.519)" fill="#fff" font-size="8" font-family="Roboto-Bold, Roboto" font-weight="700"><tspan x="-26.795" y="0">ZERO HUNGER</tspan></text>
  </g>
</svg>
