<svg xmlns="http://www.w3.org/2000/svg" width="88.098" height="88.098" viewBox="0 0 88.098 88.098">
  <g id="Group_23513" data-name="Group 23513" transform="translate(-10344 -6945.438)">
    <rect id="Rectangle_4058" data-name="Rectangle 4058" width="88.098" height="88.098" transform="translate(10344 6945.438)" fill="#f8af5f"/>
    <g id="Group_23478" data-name="Group 23478" transform="translate(10113.377 6659.479)">
      <path id="Path_44278" data-name="Path 44278" d="M258.885,337.421v22.636h13.129V334.069Zm5.877,17.72h-3.1v-2.3h3.1Zm0-5.408h-3.1v-2.3h3.1Zm0-5.408h-3.1v-2.3h3.1Zm4.47,10.816h-3.1v-2.3h3.1Zm0-5.408h-3.1v-2.3h3.1Zm0-5.408h-3.1v-2.3h3.1Z" fill="#fff"/>
      <g id="Group_23477" data-name="Group 23477">
        <path id="Path_44279" data-name="Path 44279" d="M286.874,347.476v12.581h-3.162v-3.6a3.4,3.4,0,0,0-6.793,0v3.6h-3.174V347.476Z" fill="#fff"/>
        <path id="Path_44280" data-name="Path 44280" d="M273.7,346.054l6.564-6.7,6.564,6.7Z" fill="#fff"/>
      </g>
    </g>
    <text id="_11" data-name="11" transform="translate(10386.257 6962.137)" fill="#fff" font-size="14" font-family="Roboto-Bold, Roboto" font-weight="700"><tspan x="-8.032" y="0">11</tspan></text>
    <text id="SUSTAINABLE_CITIES_AND_COMMUNITIES" data-name="SUSTAINABLE CITIES 
AND COMMUNITIES" transform="translate(10386.257 6975.512)" fill="#fff" font-size="7" font-family="Roboto-Bold, Roboto" font-weight="700"><tspan x="-35.226" y="0">SUSTAINABLE CITIES </tspan><tspan x="-31.912" y="8.4">AND COMMUNITIES</tspan></text>
  </g>
</svg>
