<svg xmlns="http://www.w3.org/2000/svg" width="88.098" height="88.098" viewBox="0 0 88.098 88.098">
  <g id="Group_23522" data-name="Group 23522" transform="translate(-10344 -7045.657)">
    <g id="Group_23521" data-name="Group 23521">
      <g id="Group_23520" data-name="Group 23520">
        <rect id="Rectangle_4059" data-name="Rectangle 4059" width="88.098" height="88.098" transform="translate(10344 7045.657)" fill="#3a789f"/>
        <g id="Group_23483" data-name="Group 23483" transform="translate(10113.377 6659.479)">
          <path id="Path_44292" data-name="Path 44292" d="M289.689,447.085a3.309,3.309,0,0,0,.276-2.249,3.306,3.306,0,0,0-1.88,1.266,3.167,3.167,0,0,0-.3,2.1l-.967,1.579a2.548,2.548,0,0,0,.13-1.093,3.306,3.306,0,0,0-1.184-1.932,3.306,3.306,0,0,0-.684,2.16,3.217,3.217,0,0,0,1.117,1.877l-1.946,3.175a2.548,2.548,0,0,0,.13-1.093,3.306,3.306,0,0,0-1.184-1.932,3.306,3.306,0,0,0-.684,2.16,3.219,3.219,0,0,0,1.117,1.877l-1.681,2.743a.1.1,0,0,0,.034.14.1.1,0,0,0,.077.013.107.107,0,0,0,.063-.046l.458-.748a3.19,3.19,0,0,0,2.149.131,1.245,1.245,0,1,0-.644-1.767,2.444,2.444,0,0,0-.825.527l1.887-3.079a3.182,3.182,0,0,0,2.149.132,1.245,1.245,0,1,0-.644-1.767,2.441,2.441,0,0,0-.826.528l2.131-3.478A3.164,3.164,0,0,0,289.689,447.085Z" fill="#fff"/>
          <path id="Path_44293" data-name="Path 44293" d="M284.638,449.521a3.57,3.57,0,0,0-6.972-1.542c-.017.074-.015.146-.026.22a10.54,10.54,0,0,0-3.589.339,19.407,19.407,0,0,1-6-8.4,11.271,11.271,0,0,0,1.353,8.885,24.853,24.853,0,0,1-8.753-5.009,14.069,14.069,0,0,0,6.869,9.069,14.453,14.453,0,0,1-7.961,4.09c-1.307.222-2.651.43-3.852.577,2.805,2.042,7.49,1.93,9.725,1.735a6.066,6.066,0,0,1,2.322.259c3.233,1,7.642.521,9.406-.837,2.039-1.57,4.156-3.7,3.552-6.63a3.554,3.554,0,0,0,2.932-.976l2.271.221Z" fill="#fff"/>
        </g>
        <text id="_16" data-name="16" transform="translate(10386.257 7062.134)" fill="#fff" font-size="14" font-family="Roboto-Bold, Roboto" font-weight="700"><tspan x="-8.032" y="0">16</tspan></text>
        <text id="_PEACE_JUSTICE_AND_STRONG_INSTITUTIONS" data-name=" PEACE, JUSTICE AND 
STRONG INSTITUTIONS" transform="translate(10386.257 7075.508)" fill="#fff" font-size="7" font-family="Roboto-Bold, Roboto" font-weight="700"><tspan x="-36.136" y="0" xml:space="preserve"> PEACE, JUSTICE AND </tspan><tspan x="-38.216" y="8.4">STRONG INSTITUTIONS</tspan></text>
      </g>
    </g>
  </g>
</svg>
