<svg xmlns="http://www.w3.org/2000/svg" width="88.098" height="88.098" viewBox="0 0 88.098 88.098">
  <g id="Group_23507" data-name="Group 23507" transform="translate(-10344 -6845.219)">
    <rect id="Rectangle_4057" data-name="Rectangle 4057" width="88.098" height="88.098" transform="translate(10344 6845.219)" fill="#58c0dd"/>
    <g id="Group_23472" data-name="Group 23472" transform="translate(10113.377 6659.479)">
      <path id="Path_44260" data-name="Path 44260" d="M267.494,246.446a7.21,7.21,0,0,0,4.935-1.852,8.744,8.744,0,0,1,5.829-2.148,8.131,8.131,0,0,1,4.288,1.1l.586-6.756h-20.5l.727,8.372A6.617,6.617,0,0,0,267.494,246.446Z" fill="#fff"/>
      <path id="Path_44261" data-name="Path 44261" d="M278.258,243.946a7.205,7.205,0,0,0-4.935,1.852,8.744,8.744,0,0,1-5.829,2.148,8.172,8.172,0,0,1-3.98-.935l1.113,12.827h16.5l1.268-14.611A6.623,6.623,0,0,0,278.258,243.946Zm-5.378,14.582a3.509,3.509,0,0,1-3.508-3.508c0-1.937,3.508-5.974,3.508-5.974s3.507,4.037,3.507,5.974A3.508,3.508,0,0,1,272.88,258.528Z" fill="#fff"/>
    </g>
    <text id="_06" data-name="06" transform="translate(10386.257 6862.141)" fill="#fff" font-size="14" font-family="Roboto-Bold, Roboto" font-weight="700"><tspan x="-8.032" y="0">06</tspan></text>
    <text id="CLEAN_WATER_AND_SANITATION" data-name="CLEAN WATER 
AND SANITATION" transform="translate(10386.257 6875.515)" fill="#fff" font-size="8" font-family="Roboto-Bold, Roboto" font-weight="700"><tspan x="-27.689" y="0">CLEAN WATER </tspan><tspan x="-32.176" y="9.6">AND SANITATION</tspan></text>
  </g>
</svg>
