<svg xmlns="http://www.w3.org/2000/svg" width="88.098" height="88.098" viewBox="0 0 88.098 88.098">
  <g id="Group_23484" data-name="Group 23484" transform="translate(-10344 -6745)">
    <rect id="Rectangle_4056" data-name="Rectangle 4056" width="88.098" height="88.098" transform="translate(10344 6745)" fill="#eb4d5d"/>
    <g id="Group_23467" data-name="Group 23467" transform="translate(10113.377 6659.479)">
      <g id="Group_23464" data-name="Group 23464">
        <path id="Path_44246" data-name="Path 44246" d="M267.875,144.809l-3.784-7.282c-.025-.047-1.142-2.463-2.222-3.1a3.206,3.206,0,0,1-4.554,0c-1.081.635-2.2,3.051-2.222,3.1l-3.785,7.282a1.2,1.2,0,0,0,.3,1.51,1.157,1.157,0,0,0,1.724-.389l1.971-3.791.532,8.2v8.739a1.51,1.51,0,0,0,1.3,1.529,1.454,1.454,0,0,0,1.6-1.446v-8.822h1.7v8.739a1.51,1.51,0,0,0,1.3,1.529,1.455,1.455,0,0,0,1.6-1.446v-8.822l.532-8.2,1.97,3.791a1.157,1.157,0,0,0,1.724.389A1.2,1.2,0,0,0,267.875,144.809Z" fill="#fff"/>
        <path id="Path_44247" data-name="Path 44247" d="M259.592,129.373a2.528,2.528,0,1,0,2.528,2.528A2.531,2.531,0,0,0,259.592,129.373Z" fill="#fff"/>
      </g>
      <g id="Group_23465" data-name="Group 23465">
        <path id="Path_44248" data-name="Path 44248" d="M277.706,145.523a.669.669,0,0,0-.924.2l-2.345,3.66a2.548,2.548,0,0,0-.451-.378,2.077,2.077,0,0,1-2.9,0,2.577,2.577,0,0,0-.45.378l-2.345-3.66a.669.669,0,0,0-1.127.722l2.8,4.368c-.015.114.4,4.569.4,4.569v4.387a.841.841,0,1,0,1.682,0v-4.387h.984v4.387a.842.842,0,0,0,1.683,0v-4.387s.412-4.455.4-4.569l2.8-4.368A.669.669,0,0,0,277.706,145.523Z" fill="#fff"/>
        <path id="Path_44249" data-name="Path 44249" d="M272.538,145.86a1.645,1.645,0,1,0,1.645,1.645A1.647,1.647,0,0,0,272.538,145.86Z" fill="#fff"/>
      </g>
      <g id="Group_23466" data-name="Group 23466">
        <path id="Path_44250" data-name="Path 44250" d="M293.476,144.808l-3.784-7.281c-.025-.047-1.142-2.463-2.222-3.1a3.206,3.206,0,0,1-4.554,0c-1.08.635-2.2,3.051-2.222,3.1l-3.785,7.282a1.2,1.2,0,0,0,.3,1.51,1.157,1.157,0,0,0,1.724-.389l1.048-2.016-1.557,10.954h3.012v4.207a1.51,1.51,0,0,0,1.3,1.529,1.454,1.454,0,0,0,1.6-1.446v-4.29h1.7v4.207a1.51,1.51,0,0,0,1.3,1.529,1.455,1.455,0,0,0,1.6-1.446v-4.29h3.012l-1.557-10.954,1.047,2.016a1.157,1.157,0,0,0,1.724.389A1.2,1.2,0,0,0,293.476,144.808Z" fill="#fff"/>
        <circle id="Ellipse_275" data-name="Ellipse 275" cx="2.528" cy="2.528" r="2.528" transform="translate(282.665 129.373)" fill="#fff"/>
      </g>
    </g>
    <text id="_01" data-name="01" transform="translate(10386.257 6762.144)" fill="#fff" font-size="14" font-family="Roboto-Bold, Roboto" font-weight="700"><tspan x="-8.032" y="0">01</tspan></text>
    <text id="NO_POVERTY" data-name="NO POVERTY" transform="translate(10386.257 6775.519)" fill="#fff" font-size="8" font-family="Roboto-Bold, Roboto" font-weight="700"><tspan x="-24.18" y="0">NO POVERTY</tspan></text>
  </g>
</svg>
