<svg xmlns="http://www.w3.org/2000/svg" width="88.098" height="88.098" viewBox="0 0 88.098 88.098">
  <g id="Group_23512" data-name="Group 23512" transform="translate(-10744.875 -6845.219)">
    <rect id="Rectangle_4071" data-name="Rectangle 4071" width="88.098" height="88.098" transform="translate(10744.875 6845.219)" fill="#e44f9b"/>
    <path id="Path_44277" data-name="Path 44277" d="M675.547,235.108l-12.365,12.365,12.365,12.365,12.365-12.365Zm-3.935,9.22h7.871a1.209,1.209,0,0,1,0,2.419h-7.871a1.209,1.209,0,1,1,0-2.419Zm7.871,6.291h-7.871a1.21,1.21,0,1,1,0-2.42h7.871a1.21,1.21,0,0,1,0,2.42Z" transform="translate(10113.377 6659.479)" fill="#fff"/>
    <text id="_10" data-name="10" transform="translate(10788.925 6862.141)" fill="#fff" font-size="14" font-family="Roboto-Bold, Roboto" font-weight="700"><tspan x="-8.032" y="0">10</tspan></text>
    <text id="REDUCED_INEQUALITIES" data-name="REDUCED 
INEQUALITIES" transform="translate(10788.925 6875.516)" fill="#fff" font-size="8" font-family="Roboto-Bold, Roboto" font-weight="700"><tspan x="-18.498" y="0">REDUCED </tspan><tspan x="-25.965" y="9.6">INEQUALITIES</tspan></text>
  </g>
</svg>
