<svg xmlns="http://www.w3.org/2000/svg" width="88.098" height="88.098" viewBox="0 0 88.098 88.098">
  <g id="Group_23511" data-name="Group 23511" transform="translate(-10644.656 -6845.219)">
    <g id="Group_23510" data-name="Group 23510">
      <rect id="Rectangle_4068" data-name="Rectangle 4068" width="88.098" height="88.098" transform="translate(10644.656 6845.219)" fill="#f38a5a"/>
      <g id="Group_23476" data-name="Group 23476" transform="translate(10113.377 6659.479)">
        <path id="Path_44271" data-name="Path 44271" d="M581.235,248.286v-6.821l-5.907-3.41-5.907,3.41v6.821l5.907,3.41Z" fill="none" stroke="#fff" stroke-miterlimit="10" stroke-width="1"/>
        <path id="Path_44272" data-name="Path 44272" d="M575.328,258.535v-6.821l-5.907-3.41-5.907,3.41v6.821l5.907,3.41Z" fill="none" stroke="#fff" stroke-miterlimit="10" stroke-width="1"/>
        <path id="Path_44273" data-name="Path 44273" d="M575.328,258.535v-6.821l5.907-3.41,5.907,3.41v6.821l-5.907,3.41Z" fill="none" stroke="#fff" stroke-miterlimit="10" stroke-width="1"/>
        <path id="Path_44274" data-name="Path 44274" d="M581.235,241.465l-5.907,3.41-5.907-3.41,5.907-3.41Z" fill="#fff"/>
        <path id="Path_44275" data-name="Path 44275" d="M569.421,261.945v-6.821l-5.907-3.41v6.821Z" fill="#fff"/>
        <path id="Path_44276" data-name="Path 44276" d="M581.235,261.945v-6.821l5.907-3.41v6.821Z" fill="#fff"/>
      </g>
      <text id="_09" data-name="09" transform="translate(10688.705 6862.141)" fill="#fff" font-size="14" font-family="Roboto-Bold, Roboto" font-weight="700"><tspan x="-8.032" y="0">09</tspan></text>
      <text id="INDUSTRY_INNOVATION_AND_INFRASTRUCTURE" data-name="INDUSTRY, INNOVATION 
AND INFRASTRUCTURE" transform="translate(10688.705 6875.515)" fill="#fff" font-size="7" font-family="Roboto-Bold, Roboto" font-weight="700"><tspan x="-39.63" y="0">INDUSTRY, INNOVATION </tspan><tspan x="-37.736" y="8.4">AND INFRASTRUCTURE</tspan></text>
    </g>
  </g>
</svg>
