<svg xmlns="http://www.w3.org/2000/svg" width="88.098" height="88.098" viewBox="0 0 88.098 88.098">
  <g id="Group_23516" data-name="Group 23516" transform="translate(-10544.438 -6945.438)">
    <g id="Group_23515" data-name="Group 23515">
      <rect id="Rectangle_4066" data-name="Rectangle 4066" width="88.098" height="88.098" transform="translate(10544.438 6945.438)" fill="#6d9065"/>
      <g id="Group_23480" data-name="Group 23480" transform="translate(10113.377 6659.479)">
        <path id="Path_44283" data-name="Path 44283" d="M494.467,345.807c-.348-.4-8.64-9.669-19.105-9.669s-18.757,9.273-19.1,9.669a.9.9,0,0,0,0,1.189c.347.4,8.64,9.669,19.1,9.669s18.757-9.273,19.105-9.669A.9.9,0,0,0,494.467,345.807Zm-19.105,9.057c-8.174,0-15.192-6.445-17.187-8.463,2-2.017,9.013-8.462,17.187-8.462s15.2,6.447,17.189,8.463C490.559,348.419,483.552,354.864,475.362,354.864Z" fill="#fff"/>
        <path id="Path_44284" data-name="Path 44284" d="M474.864,341.643c-.379.516-1.041.748-1.48,1.222-.662.713-.395,1.634-.473,2.606-.086,1.161-2.012,1.694-2.262-1.049-.043-.474-.912-.2-1.359-.043a3.85,3.85,0,0,1-1.359.352,1.416,1.416,0,0,1-.74-.258,8.4,8.4,0,0,1,7.776-6.46,3.167,3.167,0,0,0-.017.9C475.07,339.828,475.466,340.8,474.864,341.643Z" fill="#fff"/>
        <path id="Path_44285" data-name="Path 44285" d="M471.2,352.963a1,1,0,0,1-.19.619,8.369,8.369,0,0,1-4.017-6.451,6.492,6.492,0,0,0,1.54.052,4.03,4.03,0,0,1,1.729.189c.249.1.516.309.508.585-.009.3-.327.481-.577.653a2.007,2.007,0,0,0-.757.947,1.517,1.517,0,0,0,.035,1.2,3.407,3.407,0,0,0,.989,1.032A1.742,1.742,0,0,1,471.2,352.963Z" fill="#fff"/>
        <path id="Path_44286" data-name="Path 44286" d="M483.767,346.4a8.4,8.4,0,0,1-8.138,8.4,1.231,1.231,0,0,1,.25-.654,3.11,3.11,0,0,1,1.858-.989,5.685,5.685,0,0,0,2.03-.7,2.806,2.806,0,0,0,1.015-2.821A4.26,4.26,0,0,0,479,347.088a3.69,3.69,0,0,1-.7-.568.859.859,0,0,1-.19-.834c.172-.413.7-.508,1.144-.516a13.791,13.791,0,0,1,3.2.292,6.418,6.418,0,0,0,1.273.189A7.22,7.22,0,0,1,483.767,346.4Z" fill="#fff"/>
      </g>
      <text id="_13" data-name="13" transform="translate(10588.486 6962.137)" fill="#fff" font-size="14" font-family="Roboto-Bold, Roboto" font-weight="700"><tspan x="-8.032" y="0">13</tspan></text>
      <text id="CLIMATE_ACTION" data-name="CLIMATE ACTION" transform="translate(10588.486 6975.512)" fill="#fff" font-size="8" font-family="Roboto-Bold, Roboto" font-weight="700"><tspan x="-32.109" y="0">CLIMATE ACTION</tspan></text>
    </g>
  </g>
</svg>
