<svg xmlns="http://www.w3.org/2000/svg" width="88.098" height="88.098" viewBox="0 0 88.098 88.098">
  <g id="Group_23524" data-name="Group 23524" transform="translate(-10444.219 -7045.657)">
    <g id="Group_23523" data-name="Group 23523">
      <rect id="Rectangle_4063" data-name="Rectangle 4063" width="88.098" height="88.098" transform="translate(10444.219 7045.657)" fill="#495f84"/>
      <path id="Path_44294" data-name="Path 44294" d="M386.231,445.843a6.266,6.266,0,0,0-5.533-4.309,6.255,6.255,0,0,0-11.615,0,6.256,6.256,0,0,0-3.589,11.047,6.255,6.255,0,0,0,9.4,6.825,6.256,6.256,0,0,0,7.008-.231,6.262,6.262,0,0,0,2.392-6.6A6.267,6.267,0,0,0,386.231,445.843Zm-6.278-1.978a5.038,5.038,0,0,1-1.977,3.985,6.177,6.177,0,0,0-2.239.513,6.225,6.225,0,0,0-.207-2.281,4.915,4.915,0,0,1,4.29-3.332A5,5,0,0,1,379.953,443.865Zm-4.3,13.219a5.042,5.042,0,0,1-.767.827,4.948,4.948,0,0,1-1.5-5.243,6.231,6.231,0,0,0,1.5-1.727,6.18,6.18,0,0,0,1.5,1.726A5.04,5.04,0,0,1,375.658,457.084Zm-5.7-14.334a4.913,4.913,0,0,1,4.29,3.331,6.211,6.211,0,0,0-.206,2.282,6.244,6.244,0,0,0-2.234-.509,4.961,4.961,0,0,1-1.85-5.1Zm1.455,6.321a6.24,6.24,0,0,0,2.106.9,6.23,6.23,0,0,0-1.175,1.968,4.946,4.946,0,0,1-5.43.178,4.955,4.955,0,0,1,4.5-3.047Zm6.024,2.873a6.175,6.175,0,0,0-1.18-1.972,6.25,6.25,0,0,0,2.1-.9,4.955,4.955,0,0,1,4.5,3.047,4.946,4.946,0,0,1-5.424-.174ZM374.891,438.8a5.05,5.05,0,0,1,4.495,2.783,6.147,6.147,0,0,0-4.495,3.014,6.147,6.147,0,0,0-4.495-3.014A5.047,5.047,0,0,1,374.891,438.8Zm-10.2,7.411a5.068,5.068,0,0,1,4.039-3.437,6.152,6.152,0,0,0,1.474,5.228,6.16,6.16,0,0,0-4.256,3.343A5.05,5.05,0,0,1,364.691,446.214Zm3.9,11.99a5.051,5.051,0,0,1-2-4.893,6.12,6.12,0,0,0,5.41.191,6.1,6.1,0,0,0,1.867,5.091A5.049,5.049,0,0,1,368.587,458.2Zm12.607,0a5.049,5.049,0,0,1-5.276.389,6.11,6.11,0,0,0,1.871-5.09,6.122,6.122,0,0,0,4.422.23,6.167,6.167,0,0,0,.984-.423A5.05,5.05,0,0,1,381.194,458.2Zm2.091-7.776A6.214,6.214,0,0,0,379.579,448a6.165,6.165,0,0,0,1.472-5.225,5.039,5.039,0,0,1,2.783,8.569A6.276,6.276,0,0,0,383.285,450.428Z" transform="translate(10113.377 6659.479)" fill="#fff"/>
      <text id="_17" data-name="17" transform="translate(10488.268 7062.133)" fill="#fff" font-size="14" font-family="Roboto-Bold, Roboto" font-weight="700"><tspan x="-8.032" y="0">17</tspan></text>
      <text id="PARTNERSHIPS_FOR_THE_GOALS" data-name="PARTNERSHIPS 
FOR THE GOALS" transform="translate(10488.268 7075.508)" fill="#fff" font-size="8" font-family="Roboto-Bold, Roboto" font-weight="700"><tspan x="-29.967" y="0">PARTNERSHIPS </tspan><tspan x="-29.693" y="9.6">FOR THE GOALS</tspan></text>
    </g>
  </g>
</svg>
