<svg xmlns="http://www.w3.org/2000/svg" width="88.098" height="88.098" viewBox="0 0 88.098 88.098">
  <g id="Group_23508" data-name="Group 23508" transform="translate(-10444.219 -6845.219)">
    <rect id="Rectangle_4061" data-name="Rectangle 4061" width="88.098" height="88.098" transform="translate(10444.219 6845.219)" fill="#fbc764"/>
    <g id="Group_23474" data-name="Group 23474" transform="translate(10113.377 6659.479)">
      <circle id="Ellipse_276" data-name="Ellipse 276" cx="7.644" cy="7.644" r="7.644" transform="translate(367.247 240.417)" fill="#fff"/>
      <circle id="Ellipse_277" data-name="Ellipse 277" cx="10.463" cy="10.463" r="10.463" transform="translate(364.427 237.598)" fill="none" stroke="#fff" stroke-miterlimit="10" stroke-width="1"/>
      <g id="Group_23473" data-name="Group 23473">
        <path id="Path_44262" data-name="Path 44262" d="M374.891,235.181a12.836,12.836,0,0,1,1.462.089l-1.462-3.788-1.463,3.788A12.839,12.839,0,0,1,374.891,235.181Z" fill="#fff"/>
        <path id="Path_44263" data-name="Path 44263" d="M384.969,240.055l1.645-3.717-3.717,1.645A12.932,12.932,0,0,1,384.969,240.055Z" fill="#fff"/>
        <path id="Path_44264" data-name="Path 44264" d="M391.47,248.061l-3.788-1.462a12.062,12.062,0,0,1,0,2.925Z" fill="#fff"/>
        <path id="Path_44265" data-name="Path 44265" d="M366.884,237.983l-3.717-1.645,1.645,3.717A12.932,12.932,0,0,1,366.884,237.983Z" fill="#fff"/>
        <path id="Path_44266" data-name="Path 44266" d="M374.891,260.941a13.071,13.071,0,0,1-1.463-.088l1.463,3.787,1.462-3.787A13.068,13.068,0,0,1,374.891,260.941Z" fill="#fff"/>
        <path id="Path_44267" data-name="Path 44267" d="M362.01,248.061a13.06,13.06,0,0,1,.089-1.462l-3.788,1.462,3.788,1.463A13.093,13.093,0,0,1,362.01,248.061Z" fill="#fff"/>
        <path id="Path_44268" data-name="Path 44268" d="M382.9,258.14l3.717,1.644-1.645-3.716A12.933,12.933,0,0,1,382.9,258.14Z" fill="#fff"/>
        <path id="Path_44269" data-name="Path 44269" d="M364.812,256.068l-1.645,3.716,3.717-1.644A12.974,12.974,0,0,1,364.812,256.068Z" fill="#fff"/>
      </g>
    </g>
    <text id="_07" data-name="07" transform="translate(10488.268 6862.141)" fill="#fff" font-size="14" font-family="Roboto-Bold, Roboto" font-weight="700"><tspan x="-8.032" y="0">07</tspan></text>
    <text id="AFFORDABLE_AND_CLEAN_ENERGY" data-name="AFFORDABLE 
AND CLEAN ENERGY" transform="translate(10488.268 6875.515)" fill="#fff" font-size="8" font-family="Roboto-Bold, Roboto" font-weight="700"><tspan x="-25.645" y="0">AFFORDABLE </tspan><tspan x="-37.73" y="9.6">AND CLEAN ENERGY</tspan></text>
  </g>
</svg>
