<svg xmlns="http://www.w3.org/2000/svg" width="88.098" height="88.098" viewBox="0 0 88.098 88.098">
  <g id="Group_23504" data-name="Group 23504" transform="translate(-10544.438 -6745)">
    <rect id="Rectangle_4064" data-name="Rectangle 4064" width="88.098" height="88.098" transform="translate(10544.438 6745)" fill="#5cac6f"/>
    <g id="Group_23469" data-name="Group 23469" transform="translate(10113.377 6659.479)">
      <path id="Path_44253" data-name="Path 44253" d="M481.842,138.344a3.019,3.019,0,0,0-6.038,0,3.018,3.018,0,1,0-6.037,0c0,.1.006.207.016.309.161,2.636,2.365,5.14,6.021,7.464,3.657-2.324,5.861-4.828,6.022-7.464C481.836,138.551,481.842,138.448,481.842,138.344Z" fill="#fff"/>
      <path id="Path_44254" data-name="Path 44254" d="M451.533,161.824h9.4l3.994-6.352,5.192,6.352,5.591-11.9,6.023,7.68,4.362-5.657,3.5,8.665,3.294-4.737" fill="none" stroke="#fff" stroke-linecap="round" stroke-linejoin="round" stroke-width="1.2"/>
    </g>
    <text id="_03" data-name="03" transform="translate(10588.486 6762.144)" fill="#fff" font-size="14" font-family="Roboto-Bold, Roboto" font-weight="700"><tspan x="-8.032" y="0">03</tspan></text>
    <text id="GOOD_HEALTH_AND_WELL-BEING" data-name="GOOD HEALTH 
AND WELL-BEING" transform="translate(10588.486 6775.519)" fill="#fff" font-size="8" font-family="Roboto-Bold, Roboto" font-weight="700"><tspan x="-27.674" y="0">GOOD HEALTH </tspan><tspan x="-32.26" y="9.6">AND WELL-BEING</tspan></text>
  </g>
</svg>
