<svg xmlns="http://www.w3.org/2000/svg" width="88.098" height="88.098" viewBox="0 0 88.098 88.098">
  <g id="Group_23505" data-name="Group 23505" transform="translate(-10644.656 -6745)">
    <rect id="Rectangle_4067" data-name="Rectangle 4067" width="88.098" height="88.098" transform="translate(10644.656 6745)" fill="#cc4f5f"/>
    <g id="Group_23470" data-name="Group 23470" transform="translate(10113.377 6659.479)">
      <path id="Path_44255" data-name="Path 44255" d="M588.9,160.61l-27.122.009-.009-14.486,13.352,4.342a.635.635,0,0,0,.427,0l13.343-4.351Z" fill="#fff"/>
      <path id="Path_44256" data-name="Path 44256" d="M595.126,154.375l-.006-12.14a.326.326,0,0,0-.053-.171l.4-.131-20.147-6.556-20.14,6.576,20.146,6.557,19.094-6.235.006,12.1a.349.349,0,0,0,.272.339.331.331,0,0,0,.077.009A.349.349,0,0,0,595.126,154.375Z" fill="#fff"/>
    </g>
    <text id="_04" data-name="04" transform="translate(10688.705 6762.145)" fill="#fff" font-size="14" font-family="Roboto-Bold, Roboto" font-weight="700"><tspan x="-8.032" y="0">04</tspan></text>
    <text id="QUALITY_EDUCATION" data-name="QUALITY EDUCATION" transform="translate(10688.705 6775.519)" fill="#fff" font-size="8" font-family="Roboto-Bold, Roboto" font-weight="700"><tspan x="-39.133" y="0">QUALITY EDUCATION</tspan></text>
  </g>
</svg>
