<svg xmlns="http://www.w3.org/2000/svg" width="14.509" height="14.461" viewBox="0 0 14.509 14.461">
  <g id="Group_23700" data-name="Group 23700" transform="translate(0 -0.85)">
    <g id="Group_51" data-name="Group 51" transform="translate(0 0.85)">
      <g id="Group_50" data-name="Group 50">
        <path id="Path_74" data-name="Path 74" d="M7.23,14.106H1.808a.6.6,0,0,1-.6-.6V2.658a.6.6,0,0,1,.6-.6H7.23A.6.6,0,0,0,7.23.85H1.808A1.81,1.81,0,0,0,0,2.658V13.5a1.81,1.81,0,0,0,1.808,1.808H7.23a.6.6,0,0,0,0-1.205Z" transform="translate(0 -0.85)" fill="#fff"/>
      </g>
    </g>
    <g id="Group_53" data-name="Group 53" transform="translate(4.82 3.863)">
      <g id="Group_52" data-name="Group 52">
        <path id="Path_75" data-name="Path 75" d="M179.609,110.953l-3.663-3.615a.6.6,0,1,0-.846.858l2.618,2.584H170.7a.6.6,0,0,0,0,1.205h7.015l-2.618,2.584a.6.6,0,1,0,.846.858l3.663-3.615a.6.6,0,0,0,0-.858Z" transform="translate(-170.1 -107.165)" fill="#fff"/>
      </g>
    </g>
  </g>
</svg>
