<svg id="Group_23910" data-name="Group 23910" xmlns="http://www.w3.org/2000/svg" width="31.08" height="66.041" viewBox="0 0 31.08 66.041">
  <path id="Path_45231" data-name="Path 45231" d="M73.638,13a6.5,6.5,0,1,0-6.5-6.5A6.508,6.508,0,0,0,73.638,13Z" transform="translate(-58.099)" fill="#e44f9b"/>
  <path id="Path_45232" data-name="Path 45232" d="M40.879,104.8,35.956,87.66a3.277,3.277,0,0,0-3.236-2.717H18.029a3.277,3.277,0,0,0-3.238,2.717L9.868,104.8a.835.835,0,0,0,0,.483,2.934,2.934,0,0,0-.037.459,3.293,3.293,0,0,0,6.519.664l2.126-7.892-3.516,17.036a3.3,3.3,0,0,0,3.065,4.511h.359V134.29a3.3,3.3,0,0,0,6.593,0V120.063h.788V134.29a3.3,3.3,0,0,0,6.593,0V120.063h.359a3.3,3.3,0,0,0,3.064-4.513L32.272,98.515l2.109,7.825a3.294,3.294,0,0,0,6.534-.6,3.007,3.007,0,0,0-.037-.46A.851.851,0,0,0,40.879,104.8Z" transform="translate(-9.835 -71.545)" fill="#e44f9b"/>
</svg>
