<svg xmlns="http://www.w3.org/2000/svg" width="35.092" height="74.57" viewBox="0 0 35.092 74.57">
  <g id="Group_23911" data-name="Group 23911" transform="translate(-532 -610.91)">
    <path id="Path_45233" data-name="Path 45233" d="M276.459,14.681a7.34,7.34,0,1,0-7.34-7.34A7.348,7.348,0,0,0,276.459,14.681Z" transform="translate(273.087 610.91)" fill="#f38a5a"/>
    <path id="Path_45234" data-name="Path 45234" d="M246.867,107.912a.934.934,0,0,0,.025-.456l-3.654-19.384a3.7,3.7,0,0,0-3.666-3.129H219.155a3.694,3.694,0,0,0-3.66,3.1l-3.659,19.408a.947.947,0,0,0,.025.456,3.267,3.267,0,0,0-.042.519,3.719,3.719,0,0,0,7.381.652L221.5,94.669l-.03,45.994a3.722,3.722,0,0,0,7.445,0V117.9h.888v22.766a3.723,3.723,0,0,0,7.445,0l-.03-45.993,2.31,14.435a3.719,3.719,0,0,0,7.378-.673A3.251,3.251,0,0,0,246.867,107.912Z" transform="translate(320.182 541.095)" fill="#f38a5a"/>
  </g>
</svg>
