<svg xmlns="http://www.w3.org/2000/svg" width="50.627" height="50.693" viewBox="0 0 50.627 50.693">
  <g id="transgender" transform="translate(-0.331)">
    <path id="Path_45248" data-name="Path 45248" d="M274.2,14.866h7.049v3.617a11.692,11.692,0,0,1-1.465,5.68l2.469.889a22.945,22.945,0,0,1,4.85,2.425v-9A17.94,17.94,0,0,0,270.669.626V11.595A3.544,3.544,0,0,0,274.2,14.866Z" transform="translate(-243.572 -0.564)" fill="#58c0dd"/>
    <path id="Path_45249" data-name="Path 45249" d="M278.276,165.618v-.647H274.2a6.472,6.472,0,0,1-3.529-1.042v10.4A8.809,8.809,0,0,0,278.276,165.618Z" transform="translate(-243.572 -147.699)" fill="#58c0dd"/>
    <path id="Path_45250" data-name="Path 45250" d="M288.728,268.606a19.918,19.918,0,0,0-7.434-4.738l-3.279-1.181a11.742,11.742,0,0,1-7.348,3.617v6.936h9.147A10.834,10.834,0,0,0,288.728,268.606Z" transform="translate(-243.571 -236.679)" fill="#58c0dd"/>
    <path id="Path_45251" data-name="Path 45251" d="M290.89,346.2q-.093-.133-.189-.264a13.781,13.781,0,0,1-10.886,5.28h-9.147v11.161h10.494l2.634-4.786,2.6,1.432-1.846,3.355h9.977v-4.668A19.92,19.92,0,0,0,290.89,346.2Z" transform="translate(-243.571 -311.689)" fill="#58c0dd"/>
    <path id="Path_45252" data-name="Path 45252" d="M190.769,288.955v-4.523a15.425,15.425,0,0,1-5.484-1.581Z" transform="translate(-166.642 -254.846)" fill="#58c0dd"/>
    <path id="Path_45253" data-name="Path 45253" d="M9.613,274.781A13.973,13.973,0,0,0,.331,287.925v9.1h9.95v-6.513h2.97v6.513H24.127V285.152L13.5,273.4Z" transform="translate(0 -246.332)" fill="#58c0dd"/>
    <path id="Path_45254" data-name="Path 45254" d="M127.642,0h11.191V6.181H127.642Z" transform="translate(-114.706)" fill="#58c0dd"/>
    <path id="Path_45255" data-name="Path 45255" d="M127.642,97.386a12.694,12.694,0,0,0,11.191,12.588V92.427H127.642Z" transform="translate(-114.706 -83.276)" fill="#58c0dd"/>
  </g>
</svg>
