<svg xmlns="http://www.w3.org/2000/svg" width="55.489" height="53.021" viewBox="0 0 55.489 53.021">
  <g id="Layer_2" transform="translate(-13.899 -18.333)">
    <g id="Group_23912" data-name="Group 23912" transform="translate(13.899 18.333)">
      <path id="Path_45242" data-name="Path 45242" d="M69.735,30.292H51.529V41.516h7.825V36.653l10.381-2.417Z" transform="translate(-23.116 -21.262)" fill="#c5c027"/>
      <path id="Path_45243" data-name="Path 45243" d="M64.893,39.816V75.648H81.879V35.861ZM71.876,67.88h-3.02V64.86h3.02Zm0-6.607h-3.02v-3.02h3.02Zm0-6.607h-3.02v-3.02h3.02Zm0-6.607h-3.02v-3.02h3.02Zm6.041,13.214H74.9v-3.02h3.02Zm0-6.607H74.9v-3.02h3.02Zm0-6.607H74.9v-3.02h3.02Z" transform="translate(-26.389 -22.627)" fill="#c5c027"/>
      <path id="Path_45244" data-name="Path 45244" d="M34.357,38.588h6.9V26.7l-8.365-8.365H18.823V29.621H34.357Zm-8.7-12.856h-3.02v-3.02h3.02Zm6.041,0h-3.02v-3.02H31.7Z" transform="translate(-15.105 -18.333)" fill="#c5c027"/>
      <path id="Path_45245" data-name="Path 45245" d="M13.9,75.751H30.886V36.283H13.9Zm10-34.478h3.02v3.02H23.9Zm0,6.607h3.02V50.9H23.9Zm0,6.607h3.02v3.02H23.9Zm0,6.607h3.02v3.02H23.9Zm-6.041-19.82h3.02v3.02h-3.02Zm0,6.607h3.02V50.9h-3.02Zm0,6.607h3.02v3.02h-3.02Zm0,6.607h3.02v3.02h-3.02Z" transform="translate(-13.899 -22.73)" fill="#c5c027"/>
      <path id="Path_45246" data-name="Path 45246" d="M39.4,78.66H56.382v-30.5H39.4Zm10-25.512h3.02v3.02H49.4Zm0,6.607h3.02v3.02H49.4Zm-6.041-6.607h3.02v3.02h-3.02Zm0,6.607h3.02v3.02h-3.02Zm0,6.607h3.02v3.02h-3.02Z" transform="translate(-20.144 -25.638)" fill="#c5c027"/>
    </g>
  </g>
</svg>
