<svg xmlns="http://www.w3.org/2000/svg" width="56.33" height="53.95" viewBox="0 0 56.33 53.95">
  <g id="house" transform="translate(0 -10.817)">
    <path id="Path_45235" data-name="Path 45235" d="M416.626,33.563c.27.159.532.318.788.476V28.746a5.376,5.376,0,0,0,3.726-5.11V16.184a5.367,5.367,0,1,0-10.735,0v7.452a5.377,5.377,0,0,0,3.726,5.11v3.467C415.042,32.666,415.874,33.121,416.626,33.563Z" transform="translate(-365.253)" fill="#b97c1b"/>
    <path id="Path_45236" data-name="Path 45236" d="M11.03,32.213V28.746a5.376,5.376,0,0,0,3.726-5.11V16.184a5.368,5.368,0,0,0-10.735,0v7.452a5.377,5.377,0,0,0,3.726,5.11v5.293c.256-.158.518-.317.788-.476.752-.442,1.584-.9,2.5-1.35Z" transform="translate(-3.579 0)" fill="#b97c1b"/>
    <path id="Path_45237" data-name="Path 45237" d="M158.977,30.145V27.151a1.642,1.642,0,1,1,3.283,0v2.994a48.639,48.639,0,0,1,7.452.807V24.707a1.855,1.855,0,0,0,1.955-3.137l-9.936-7.452a1.855,1.855,0,0,0-2.226,0L149.57,21.57a1.854,1.854,0,0,0,1.955,3.135v6.247A48.656,48.656,0,0,1,158.977,30.145Z" transform="translate(-132.454 -2.608)" fill="#b97c1b"/>
    <path id="Path_45238" data-name="Path 45238" d="M92.051,204.418a56.974,56.974,0,0,1,20.279-7.149,44.442,44.442,0,0,0-40.546,0A56.97,56.97,0,0,1,92.051,204.418Z" transform="translate(-63.886 -161.584)" fill="#b97c1b"/>
    <path id="Path_45239" data-name="Path 45239" d="M309.892,260.317a55.848,55.848,0,0,0-24.984,6.6,47.519,47.519,0,0,1,9.465,8.565,40.687,40.687,0,0,1,6.776,11.339h7.1a1.642,1.642,0,0,0,1.642-1.642Z" transform="translate(-253.563 -222.05)" fill="#b97c1b"/>
    <path id="Path_45240" data-name="Path 45240" d="M0,268.235a27.782,27.782,0,0,1,15.209,5.558,27.887,27.887,0,0,1,9.535,13.024H44.037C37.4,271.512,19.8,260.876,0,260.317Z" transform="translate(0 -222.05)" fill="#b97c1b"/>
    <path id="Path_45241" data-name="Path 45241" d="M21.239,377.492A24.772,24.772,0,0,0,0,362.2V375.85a1.642,1.642,0,0,0,1.642,1.642h19.6Z" transform="translate(0 -312.725)" fill="#b97c1b"/>
  </g>
</svg>
