<svg id="Icons_Interface_ic-no-eye" data-name="Icons / Interface / ic-no-eye" xmlns="http://www.w3.org/2000/svg" width="17.196" height="13.756" viewBox="0 0 17.196 13.756">
  <path id="Union" d="M17.1,5.618C15.155,1.93,11.917,0,8.6,0S2.04,1.93.1,5.618a.86.86,0,0,0,0,.8c1.941,3.687,5.179,5.618,8.5,5.618s6.558-1.93,8.5-5.618A.86.86,0,0,0,17.1,5.618Z" transform="translate(0 0.86)" fill="#efefef"/>
  <path id="Union-2" data-name="Union" d="M2.579,0A2.579,2.579,0,1,0,5.159,2.579,2.579,2.579,0,0,0,2.579,0Z" transform="translate(6.018 4.299)" fill="#fff"/>
  <path id="Line_3_Stroke_" data-name="Line 3 (Stroke)" d="M13.5.252a.86.86,0,0,1,0,1.216L1.468,13.5A.86.86,0,1,1,.252,12.289L12.289.252A.86.86,0,0,1,13.5.252Z" transform="translate(1.72 0)" fill="#1f1f1f"/>
</svg>
